<?xml version="1.0" encoding="utf-8"?>
<svg version="1.1" id="Camada_1" xmlns="http://www.w3.org/2000/svg" xmlns:xlink="http://www.w3.org/1999/xlink" x="0px" y="0px"
	 viewBox="0 0 48 44.1" style="enable-background:new 0 0 48 44.1;" xml:space="preserve">
<style type="text/css">
	.st0{fill:#322153;}
	.st1{fill:#29A361;}
	.st2{fill:#248F55;}
	.st3{fill:#34CB79;}
	.st4{fill:#2FB86E;}
</style>
<path class="st0" d="M72,33.8V11.7h15v4.2H77v4.4h8.9v4.1H77v5.3h10.7v4.2H72z"/>
<path class="st0" d="M89.9,25.4c0-1.2,0.2-2.4,0.6-3.4c0.4-1.1,1-2,1.7-2.8c0.7-0.8,1.7-1.5,2.7-1.9c1.1-0.5,2.3-0.7,3.6-0.7
	c0.9,0,1.7,0.1,2.5,0.3c0.7,0.1,1.5,0.4,2.2,0.7l-1,3.8c-0.4-0.2-0.9-0.3-1.5-0.4c-0.5-0.1-1.1-0.2-1.8-0.2c-1.4,0-2.5,0.4-3.2,1.3
	c-0.7,0.9-1,2-1,3.5c0,1.5,0.3,2.7,1,3.5c0.7,0.8,1.8,1.2,3.4,1.2c0.6,0,1.2-0.1,1.9-0.2c0.7-0.1,1.3-0.3,1.8-0.5l0.7,3.9
	c-0.6,0.2-1.2,0.4-2.1,0.6s-1.7,0.3-2.8,0.3c-1.5,0-2.9-0.2-4-0.7c-1.1-0.5-2-1.1-2.8-1.9c-0.7-0.8-1.2-1.7-1.6-2.8
	C90.1,27.8,89.9,26.7,89.9,25.4z"/>
<path class="st0" d="M121.6,25.4c0,1.3-0.2,2.5-0.6,3.6c-0.4,1.1-0.9,2-1.7,2.8c-0.7,0.8-1.6,1.4-2.6,1.8c-1,0.4-2.1,0.6-3.4,0.6
	c-1.2,0-2.4-0.2-3.4-0.6c-1-0.4-1.9-1-2.6-1.8c-0.7-0.8-1.3-1.7-1.7-2.8c-0.4-1.1-0.6-2.3-0.6-3.6c0-1.3,0.2-2.5,0.6-3.6
	c0.4-1.1,1-2,1.7-2.8c0.7-0.8,1.6-1.4,2.6-1.8c1-0.4,2.1-0.6,3.3-0.6c1.2,0,2.3,0.2,3.3,0.6c1,0.4,1.9,1,2.6,1.8
	c0.7,0.8,1.3,1.7,1.7,2.8C121.4,22.9,121.6,24.1,121.6,25.4z M116.8,25.4c0-1.5-0.3-2.6-0.9-3.5c-0.6-0.9-1.4-1.3-2.5-1.3
	s-1.9,0.4-2.5,1.3c-0.6,0.8-0.9,2-0.9,3.5s0.3,2.6,0.9,3.5c0.6,0.9,1.4,1.3,2.5,1.3s1.9-0.4,2.5-1.3C116.5,28,116.8,26.9,116.8,25.4
	z"/>
<path class="st0" d="M132.1,34.2c-1.4,0-2.5-0.2-3.4-0.4c-0.9-0.3-1.5-0.7-2-1.2c-0.5-0.5-0.8-1.1-1-1.8c-0.2-0.7-0.3-1.5-0.3-2.4
	V9.8l4.8-0.8v18.3c0,0.4,0,0.8,0.1,1.2c0.1,0.3,0.2,0.6,0.4,0.9c0.2,0.2,0.5,0.4,0.8,0.6c0.3,0.1,0.8,0.2,1.4,0.3L132.1,34.2z"/>
<path class="st0" d="M134.7,25.5c0-1.5,0.2-2.8,0.7-3.9c0.5-1.1,1.1-2.1,1.8-2.8c0.7-0.7,1.6-1.3,2.6-1.7c1-0.4,2-0.6,3-0.6
	c2.4,0,4.3,0.7,5.7,2.2c1.4,1.5,2.1,3.6,2.1,6.4c0,0.3,0,0.6,0,0.9c0,0.3,0,0.6-0.1,0.9h-10.8c0.1,1,0.6,1.8,1.4,2.3
	c0.8,0.6,1.9,0.9,3.3,0.9c0.9,0,1.7-0.1,2.6-0.2c0.9-0.2,1.5-0.4,2.1-0.6l0.6,3.9c-0.3,0.1-0.6,0.3-1,0.4c-0.4,0.1-0.9,0.2-1.4,0.3
	c-0.5,0.1-1.1,0.2-1.7,0.3c-0.6,0.1-1.2,0.1-1.8,0.1c-1.5,0-2.8-0.2-4-0.7c-1.1-0.4-2-1.1-2.8-1.8c-0.7-0.8-1.3-1.7-1.6-2.8
	C134.8,27.9,134.7,26.8,134.7,25.5z M145.9,23.7c0-0.4-0.1-0.8-0.2-1.2c-0.1-0.4-0.3-0.7-0.5-1c-0.2-0.3-0.5-0.5-0.9-0.7
	c-0.4-0.2-0.8-0.3-1.4-0.3c-0.5,0-1,0.1-1.4,0.3c-0.4,0.2-0.7,0.4-1,0.7s-0.5,0.7-0.6,1.1c-0.1,0.4-0.2,0.8-0.3,1.2H145.9z"/>
<path class="st0" d="M154,12.8l4.8-0.8v5h5.7v4h-5.7v5.9c0,1,0.2,1.8,0.5,2.4c0.4,0.6,1.1,0.9,2.1,0.9c0.5,0,1,0,1.6-0.1
	c0.6-0.1,1.1-0.2,1.5-0.4l0.7,3.7c-0.6,0.2-1.2,0.4-1.9,0.6s-1.6,0.3-2.6,0.3c-1.3,0-2.4-0.2-3.2-0.5c-0.9-0.4-1.5-0.9-2-1.5
	c-0.5-0.6-0.9-1.4-1.1-2.3c-0.2-0.9-0.3-1.9-0.3-3V12.8z"/>
<path class="st0" d="M174.2,30.5c0.5,0,0.9,0,1.3,0c0.4,0,0.8-0.1,1-0.1v-3.6c-0.2,0-0.5-0.1-0.9-0.1c-0.4,0-0.7-0.1-1.1-0.1
	c-0.4,0-0.9,0-1.3,0.1c-0.4,0-0.7,0.1-1,0.3c-0.3,0.1-0.5,0.4-0.7,0.6c-0.2,0.3-0.3,0.6-0.3,1c0,0.7,0.2,1.3,0.7,1.6
	C172.6,30.4,173.3,30.5,174.2,30.5z M173.8,16.6c1.4,0,2.6,0.2,3.5,0.5c0.9,0.3,1.7,0.8,2.2,1.4c0.6,0.6,1,1.3,1.2,2.2
	c0.2,0.9,0.4,1.8,0.4,2.8v9.9c-0.7,0.1-1.6,0.3-2.8,0.5c-1.2,0.2-2.7,0.3-4.4,0.3c-1.1,0-2.1-0.1-3-0.3c-0.9-0.2-1.6-0.5-2.3-0.9
	c-0.6-0.4-1.1-1-1.5-1.7c-0.3-0.7-0.5-1.6-0.5-2.6c0-1,0.2-1.8,0.6-2.5c0.4-0.7,0.9-1.2,1.6-1.6c0.7-0.4,1.4-0.7,2.3-0.9
	c0.9-0.2,1.7-0.3,2.7-0.3c0.6,0,1.2,0,1.6,0.1c0.5,0,0.9,0.1,1.2,0.2v-0.4c0-0.8-0.2-1.5-0.7-2c-0.5-0.5-1.3-0.7-2.6-0.7
	c-0.8,0-1.6,0.1-2.4,0.2c-0.8,0.1-1.5,0.3-2,0.5l-0.6-3.8c0.3-0.1,0.6-0.2,1-0.3c0.4-0.1,0.9-0.2,1.4-0.3c0.5-0.1,1-0.1,1.5-0.2
	C172.7,16.6,173.2,16.6,173.8,16.6z"/>
<path class="st1" d="M14.6,1.8l-4.6,8.7c-0.3,0.6-0.1,1.3,0.4,1.6l7.2,4.2c0.5,0.3,1.2,0.1,1.6-0.4L28,0H17.6
	C16.4,0,15.2,0.7,14.6,1.8z"/>
<path class="st2" d="M28,0l-8.8,15.9c-0.3,0.6-1,0.8-1.6,0.4l-1.9-1.1c0.5,0.1,0.9-0.1,1.2-0.6L25,0H28z"/>
<path class="st3" d="M37.6,8.5l-3.2-6.5c-0.6-1.2-1.8-1.9-3-1.9h-9.1l7,12.3c0,0,0,0-0.1,0c-0.4,0.2-0.4,0.9,0,1l6,2.4
	c0.3,0.1,0.6,0,0.7-0.3l2.3-6.3C38.4,8.7,38,8.3,37.6,8.5z"/>
<path class="st4" d="M38.3,9.2l-2.3,6.3c-0.1,0.3-0.4,0.4-0.7,0.3l-1.8-0.7l2.2-5.9c0.1-0.3-0.1-0.7-0.4-0.7
	c-0.3-0.1-0.5-0.3-0.6-0.5l-2.9-6C31.1,0.8,30,0,28.7,0h2.7c1.3,0,2.5,0.8,3,1.9l3.2,6.5C38,8.3,38.4,8.7,38.3,9.2z"/>
<path class="st1" d="M31.5,33.6c-0.1-0.4-0.5-0.5-0.8-0.2l-4.7,4.9c-0.2,0.2-0.2,0.5,0,0.7l4.7,4.9c0.3,0.3,0.7,0.1,0.8-0.2h7
	c1.3,0,2.5-0.7,3-1.9l4-8.1L31.5,33.6L31.5,33.6z"/>
<path class="st2" d="M37.4,33.6l2.3,3.5c0.5,0.8,0.6,1.8,0.1,2.7l-0.9,1.9c-0.6,1.2-1.8,1.9-3,1.9h2.7c1.3,0,2.5-0.7,3-1.9l4-8.1
	L37.4,33.6L37.4,33.6z"/>
<path class="st1" d="M21.9,42.7V34c0-0.7-0.5-1.2-1.1-1.2H2.1L6.9,42c0.6,1.1,1.7,1.8,3,1.8h10.9C21.4,43.9,21.9,43.3,21.9,42.7z"/>
<path class="st2" d="M10,32.9l-4.2,7.2l-3.8-7.2H10z"/>
<path class="st2" d="M21.9,34v8.7c0,0.7-0.5,1.2-1.1,1.2h-3c0.6,0,1.1-0.5,1.1-1.2V34c0-0.7-0.5-1.2-1.1-1.2h3
	C21.4,32.9,21.9,33.4,21.9,34z"/>
<path class="st3" d="M12.8,25.2l-0.8-6.6c0-0.3-0.3-0.6-0.6-0.5L4.9,19c-0.5,0.1-0.7,0.7-0.3,1l-4,6c-0.7,1.1-0.8,2.5-0.2,3.7
	L4.8,38l7.1-12.3c0,0,0,0,0,0C12.3,26.1,12.9,25.7,12.8,25.2z"/>
<path class="st4" d="M11.9,25.8C11.9,25.8,11.9,25.8,11.9,25.8L4.8,38l-1.5-2.8l5.8-10L9.2,25c0.1-0.2,0.3-0.2,0.4-0.2c0,0,0,0,0,0
	c0.4,0.1,0.7-0.2,0.7-0.7l-0.7-5.8l1.7-0.2c0.3,0,0.6,0.2,0.6,0.5l0.8,6.6C12.9,25.7,12.3,26.1,11.9,25.8z"/>
<path class="st3" d="M47.4,25.6l-5.5-8.2c-0.3-0.5-1-0.7-1.5-0.4l-7.1,4.3c-0.6,0.3-0.7,1.1-0.4,1.7L43,38.7l4.7-9.6
	C48.2,28,48.1,26.6,47.4,25.6z"/>
<path class="st4" d="M47.6,29.2L43,38.7l-1.6-2.5l3.5-7.1c0.6-1.2,0.5-2.5-0.2-3.6l-5.3-7.9l1.1-0.6c0.5-0.3,1.2-0.2,1.5,0.4
	l5.5,8.2C48.1,26.6,48.2,28,47.6,29.2z"/>
</svg>
