<?xml version="1.0" encoding="utf-8"?>
<svg version="1.1" id="Camada_1" xmlns="http://www.w3.org/2000/svg" xmlns:xlink="http://www.w3.org/1999/xlink" x="0px" y="0px"
	 viewBox="0 0 48 44.1" style="enable-background:new 0 0 48 44.1;" xml:space="preserve">
<style type="text/css">
	.st0{fill:#29A361;}
	.st1{fill:#248F55;}
	.st2{fill:#34CB79;}
	.st3{fill:#2FB86E;}
</style>
<path class="st0" d="M14.6,1.8L10,10.5c-0.3,0.6-0.1,1.3,0.4,1.6l7.2,4.2c0.5,0.3,1.2,0.1,1.6-0.4L28,0H17.6
	C16.4,0,15.2,0.7,14.6,1.8z"/>
<path class="st1" d="M28,0l-8.8,15.9c-0.3,0.6-1,0.8-1.6,0.4l-1.9-1.1c0.5,0.1,0.9-0.1,1.2-0.6L25,0H28z"/>
<path class="st2" d="M37.6,8.5L34.4,2c-0.6-1.2-1.8-1.9-3-1.9h-9.1l7,12.3c0,0,0,0-0.1,0c-0.4,0.2-0.4,0.9,0,1l6,2.4
	c0.3,0.1,0.6,0,0.7-0.3l2.3-6.3C38.4,8.7,38,8.3,37.6,8.5z"/>
<path class="st3" d="M38.3,9.2L36,15.5c-0.1,0.3-0.4,0.4-0.7,0.3l-1.8-0.7l2.2-5.9c0.1-0.3-0.1-0.7-0.4-0.7C35,8.4,34.8,8.2,34.7,8
	l-2.9-6c-0.7-1.2-1.8-2-3.1-2h2.7c1.3,0,2.5,0.8,3,1.9l3.2,6.5C38,8.3,38.4,8.7,38.3,9.2z"/>
<path class="st0" d="M31.5,33.6c-0.1-0.4-0.5-0.5-0.8-0.2L26,38.3c-0.2,0.2-0.2,0.5,0,0.7l4.7,4.9c0.3,0.3,0.7,0.1,0.8-0.2h7
	c1.3,0,2.5-0.7,3-1.9l4-8.1L31.5,33.6L31.5,33.6z"/>
<path class="st1" d="M37.4,33.6l2.3,3.5c0.5,0.8,0.6,1.8,0.1,2.7l-0.9,1.9c-0.6,1.2-1.8,1.9-3,1.9h2.7c1.3,0,2.5-0.7,3-1.9l4-8.1
	H37.4L37.4,33.6z"/>
<path class="st0" d="M21.9,42.7V34c0-0.7-0.5-1.2-1.1-1.2H2.1L6.9,42c0.6,1.1,1.7,1.8,3,1.8h10.9C21.4,43.9,21.9,43.3,21.9,42.7z"/>
<path class="st1" d="M10,32.9l-4.2,7.2L2,32.9H10z"/>
<path class="st1" d="M21.9,34v8.7c0,0.7-0.5,1.2-1.1,1.2h-3c0.6,0,1.1-0.5,1.1-1.2V34c0-0.7-0.5-1.2-1.1-1.2h3
	C21.4,32.9,21.9,33.4,21.9,34z"/>
<path class="st2" d="M12.8,25.2L12,18.6c0-0.3-0.3-0.6-0.6-0.5L4.9,19c-0.5,0.1-0.7,0.7-0.3,1l-4,6c-0.7,1.1-0.8,2.5-0.2,3.7L4.8,38
	l7.1-12.3l0,0C12.3,26.1,12.9,25.7,12.8,25.2z"/>
<path class="st3" d="M11.9,25.8L11.9,25.8L4.8,38l-1.5-2.8l5.8-10L9.2,25c0.1-0.2,0.3-0.2,0.4-0.2l0,0c0.4,0.1,0.7-0.2,0.7-0.7
	l-0.7-5.8l1.7-0.2c0.3,0,0.6,0.2,0.6,0.5l0.8,6.6C12.9,25.7,12.3,26.1,11.9,25.8z"/>
<path class="st2" d="M47.4,25.6l-5.5-8.2c-0.3-0.5-1-0.7-1.5-0.4l-7.1,4.3c-0.6,0.3-0.7,1.1-0.4,1.7L43,38.7l4.7-9.6
	C48.2,28,48.1,26.6,47.4,25.6z"/>
<path class="st3" d="M47.6,29.2L43,38.7l-1.6-2.5l3.5-7.1c0.6-1.2,0.5-2.5-0.2-3.6l-5.3-7.9l1.1-0.6c0.5-0.3,1.2-0.2,1.5,0.4
	l5.5,8.2C48.1,26.6,48.2,28,47.6,29.2z"/>
</svg>
