<?xml version="1.0" encoding="utf-8"?>
<svg version="1.1" id="Interrogation" xmlns="http://www.w3.org/2000/svg" xmlns:xlink="http://www.w3.org/1999/xlink" x="0px"
	 y="0px" viewBox="0 0 40 40" style="enable-background:new 0 0 40 40;" xml:space="preserve">
<style type="text/css">
	.st0{fill:#F0F0F5;}
</style>
<g id="Grupo">
	<path id="path2413" class="st0" d="M20,0C9,0,0,9,0,20s9,20,20,20s20-9,20-20S31,0,20,0z M20,2.6c9.6,0,17.4,7.8,17.4,17.4
		S29.6,37.4,20,37.4S2.6,29.6,2.6,20S10.4,2.6,20,2.6z M20.3,6.8c-1.1,0-2.1,0.1-3.1,0.4c-0.9,0.3-1.8,0.7-2.6,1.2
		c-0.6,0.5-1.3,1.1-1.7,1.7c-0.8,1.1-1.3,2.3-1.4,3.7c0,0.1,0,0.2,0,0.2s4.3,0.5,4.4,0.5c0,0,0,0,0.1-0.2c0.4-1.6,1.1-2.7,2.2-3.4
		c0.9-0.5,2-0.7,3.2-0.6c0.5,0.1,1,0.2,1.5,0.4c0.5,0.3,1,0.7,1.4,1.2c0.3,0.4,0.5,0.9,0.5,1.5c0,0.2,0,0.5,0,0.6
		c0,0.4-0.1,0.7-0.3,1c-0.2,0.3-0.3,0.5-0.6,0.8c-0.4,0.4-1,1-2.2,1.9c-0.7,0.6-1.2,1-1.6,1.5c-1,1-1.4,1.8-1.7,2.9
		c-0.2,0.7-0.3,1.5-0.2,2.6c0,0.3,0,0.5,0,0.6v0.1h4.3v-0.5c0-0.7,0-1.1,0.1-1.5c0.1-0.7,0.3-1,0.8-1.6c0.3-0.4,0.7-0.8,1.4-1.3
		c1-0.8,1.6-1.4,2.3-2c1-1,1.5-1.7,1.9-2.4c0.3-0.6,0.4-1.2,0.5-1.9c0-0.2,0-0.6,0-0.8c-0.1-1.4-0.6-2.7-1.6-3.8
		C27.5,9.5,27.1,9.2,27,9c-1-0.9-2.1-1.5-3.5-1.8c-0.8-0.2-1.6-0.3-2.7-0.3C20.6,6.8,20.5,6.8,20.3,6.8z M18.1,27.5v4.4h4.4v-4.4
		H18.1z"/>
</g>
</svg>
